<mxfile host="app.diagrams.net" modified="2024-06-26T20:34:28.097Z" agent="Mozilla/5.0 (Windows NT 10.0; Win64; x64; rv:126.0) Gecko/20100101 Firefox/126.0" version="24.6.3" etag="jZHNa4-_n3ThcUvrdUtl" type="github">
  <diagram name="Page-1" id="cORK4WwTAtADmZH62Mvd">
    <mxGraphModel>
      <root>
        <mxCell id="0" />
        <mxCell id="1" parent="0" />
      </root>
    </mxGraphModel>
  </diagram>
</mxfile>
